<svg width="260" height="500" viewBox="0 0 260 500" xmlns="http://www.w3.org/2000/svg"><defs><linearGradient id="b" x2="1" y2="1"><stop stop-color="#45474a"/><stop offset=".45" stop-color="#151619"/><stop offset="1" stop-color="#050607"/></linearGradient><filter id="s"><feDropShadow dx="0" dy="16" stdDeviation="12" flood-opacity=".7"/></filter></defs><path filter="url(#s)" d="M52 8h156c22 0 40 18 40 40v404c0 22-18 40-40 40H52c-22 0-40-18-40-40V48C12 26 30 8 52 8z" fill="url(#b)" stroke="#696b70" stroke-width="3"/><path d="M106 8h48v18h-48z" fill="#d09a56"/><path d="M55 60h150M55 440h150" stroke="#696b70"/><path d="M130 178c-30 0-50 20-50 51 0 29 20 67 50 67s50-38 50-67c0-31-20-51-50-51zm0-32c-2-25 18-46 41-48 3 24-17 45-41 48z" fill="#73757a" opacity=".3"/><text x="130" y="370" text-anchor="middle" fill="#777a80" font-family="Arial" font-size="11" letter-spacing="3">LI-ION</text><g fill="#aaa" opacity=".35"><circle cx="39" cy="44" r="3"/><circle cx="221" cy="44" r="3"/><circle cx="39" cy="456" r="3"/><circle cx="221" cy="456" r="3"/></g></svg>
