<svg width="360" height="740" viewBox="0 0 360 740" xmlns="http://www.w3.org/2000/svg"><defs><linearGradient id="m" x2="1" y2="1"><stop stop-color="#eee9df"/><stop offset=".45" stop-color="#787872"/><stop offset="1" stop-color="#252628"/></linearGradient><filter id="s"><feDropShadow dx="0" dy="10" stdDeviation="12" flood-opacity=".55"/></filter></defs><path filter="url(#s)" fill="url(#m)" fill-rule="evenodd" d="M76 8h208c38 0 68 30 68 68v588c0 38-30 68-68 68H76c-38 0-68-30-68-68V76C8 38 38 8 76 8zm8 28C57 36 36 57 36 84v572c0 27 21 48 48 48h192c27 0 48-21 48-48V84c0-27-21-48-48-48H84zm4 52h184v190H88zm0 214h184v330H88z"/><path d="M180 36v668M36 290h288M55 80v580M305 80v580" stroke="#d5d1c6" opacity=".45" stroke-width="3"/><g fill="#1c1e20"><circle cx="55" cy="145" r="7"/><circle cx="305" cy="145" r="7"/><circle cx="55" cy="590" r="7"/><circle cx="305" cy="590" r="7"/></g></svg>
